<svg width="35" height="34" viewBox="0 0 35 34" fill="none" xmlns="http://www.w3.org/2000/svg">
<path fill-rule="evenodd" clip-rule="evenodd" d="M17.5 0C7.83502 0 0 7.61116 0 17C0 26.3888 7.83502 34 17.5 34C27.165 34 35 26.3888 35 17C35 7.61116 27.165 0 17.5 0ZM10.8683 7.36667H24.715C25.8827 7.36667 26.8333 8.279 26.8333 9.4095V27.2L24.6117 25.3158L23.3613 24.2052L22.0387 23.0251L22.5863 24.8597H10.8683C9.70067 24.8597 8.75 23.9473 8.75 22.8168V9.4095C8.75 8.279 9.70067 7.36667 10.8683 7.36667Z" fill="#001D28"/>
<path fill-rule="evenodd" clip-rule="evenodd" d="M20.7263 20.3178C20.7263 20.3178 20.3543 19.8914 20.0443 19.5146C21.398 19.1477 21.9146 18.3345 21.9146 18.3345C21.491 18.6023 21.088 18.7907 20.7263 18.9196C20.2096 19.1278 19.7136 19.2667 19.228 19.346C18.236 19.5245 17.3266 19.4749 16.5516 19.3361C15.9626 19.227 15.4563 19.0683 15.0326 18.9097C14.795 18.8204 14.5366 18.7113 14.2783 18.5725C14.2628 18.5626 14.2473 18.5552 14.2318 18.5477L14.2318 18.5477C14.2163 18.5403 14.2008 18.5328 14.1853 18.5229C14.1646 18.513 14.1543 18.5031 14.144 18.4932C13.958 18.394 13.8546 18.3246 13.8546 18.3246C13.8546 18.3246 14.3506 19.1179 15.663 19.4948C15.353 19.8716 14.9706 20.3178 14.9706 20.3178C12.687 20.2484 11.819 18.8105 11.819 18.8105C11.819 15.6173 13.307 13.0291 13.307 13.0291C14.795 11.9581 16.2106 11.9878 16.2106 11.9878L16.314 12.1068C14.454 12.6225 13.5963 13.4059 13.5963 13.4059C13.5963 13.4059 13.8236 13.2869 14.206 13.1183C15.3116 12.6523 16.19 12.5233 16.5516 12.4936L16.5748 12.4898C16.6269 12.4813 16.6732 12.4738 16.7273 12.4738C17.3576 12.3944 18.0706 12.3746 18.8146 12.4539C19.7963 12.563 20.8503 12.8407 21.925 13.4059C21.925 13.4059 21.1086 12.6622 19.352 12.1465L19.4966 11.9878C19.4966 11.9878 20.9123 11.9581 22.4003 13.0291C22.4003 13.0291 23.8883 15.6173 23.8883 18.8105C23.8883 18.8105 23.01 20.2484 20.7263 20.3178ZM16.2123 15.8667C15.628 15.8667 15.1666 16.3772 15.1666 17C15.1666 17.6228 15.6382 18.1333 16.2123 18.1333C16.7967 18.1333 17.258 17.6228 17.258 17C17.2683 16.3772 16.7967 15.8667 16.2123 15.8667ZM18.9086 17C18.9086 16.3772 19.3699 15.8667 19.9543 15.8667C20.5386 15.8667 21 16.3772 21 17C21 17.6228 20.5386 18.1333 19.9543 18.1333C19.3802 18.1333 18.9086 17.6228 18.9086 17Z" fill="#001D28"/>
</svg>
