<svg width="35" height="34" viewBox="0 0 35 34" fill="none" xmlns="http://www.w3.org/2000/svg">
<path fill-rule="evenodd" clip-rule="evenodd" d="M17.5 0C7.83502 0 0 7.61116 0 17C0 26.3888 7.83502 34 17.5 34C27.165 34 35 26.3888 35 17C35 7.61116 27.165 0 17.5 0ZM17.0126 14.4061L16.9759 13.8178C16.8657 12.2932 17.8327 10.9006 19.3629 10.3604C19.9259 10.1683 20.8807 10.1443 21.505 10.3124C21.7498 10.3844 22.215 10.6245 22.5455 10.8406L23.1453 11.2368L23.8063 11.0327C24.1735 10.9246 24.6632 10.7446 24.8835 10.6245C25.0916 10.5165 25.2752 10.4565 25.2752 10.4925C25.2752 10.6965 24.8223 11.3928 24.4428 11.777C23.9287 12.3172 24.0756 12.3652 25.1161 12.0051C25.7404 11.801 25.7526 11.801 25.6302 12.0291C25.5567 12.1491 25.1773 12.5693 24.7733 12.9535C24.0878 13.6137 24.0511 13.6858 24.0511 14.238C24.0511 15.0903 23.6349 16.867 23.2187 17.8394C22.4476 19.6642 20.795 21.5489 19.1425 22.4973C16.8167 23.8299 13.7198 24.166 11.1125 23.3857C10.2434 23.1216 8.75 22.4493 8.75 22.3293C8.75 22.2932 9.20291 22.2452 9.75375 22.2332C10.9044 22.2092 12.055 21.8971 13.0343 21.3449L13.6953 20.9607L12.9364 20.7086C11.8592 20.3485 10.8922 19.5201 10.6473 18.7398C10.5739 18.4877 10.5984 18.4757 11.2839 18.4757L11.9938 18.4637L11.394 18.1876C10.6841 17.8394 10.0353 17.2512 9.71703 16.651C9.48445 16.2188 9.19067 15.1263 9.27636 15.0423C9.30084 15.0063 9.5579 15.0783 9.85168 15.1744C10.6963 15.4745 10.8065 15.4025 10.3168 14.8983C9.39877 13.9859 9.11723 12.6293 9.5579 11.3448L9.76599 10.7686L10.5739 11.5489C12.2264 13.1215 14.1727 14.0579 16.4006 14.334L17.0126 14.4061Z" fill="#001D28"/>
</svg>
