<svg xmlns="http://www.w3.org/2000/svg" width="22.813" height="15.956" viewBox="0 0 22.813 15.956">
  <g id="Group_2287" data-name="Group 2287" transform="translate(0.25 0.25)">
    <path id="Path_1245" data-name="Path 1245" d="M23.054,36.456H3.26A1.26,1.26,0,0,1,2,35.2V22.258A1.26,1.26,0,0,1,3.26,21H23.054a1.26,1.26,0,0,1,1.26,1.258V35.2A1.26,1.26,0,0,1,23.054,36.456ZM3.26,21.719a.54.54,0,0,0-.54.539V35.2a.54.54,0,0,0,.54.539H23.054a.54.54,0,0,0,.54-.539V22.258a.54.54,0,0,0-.54-.539Z" transform="translate(-2 -21)" stroke="#16161d" stroke-width="0.5"/>
    <g id="Group_2278" data-name="Group 2278" transform="translate(2.494 3.275)">
      <path id="Path_1246" data-name="Path 1246" d="M20.18,48.128a4.456,4.456,0,1,1,4.3-4.453A4.384,4.384,0,0,1,20.18,48.128Zm0-8.187a3.737,3.737,0,1,0,3.582,3.734A3.665,3.665,0,0,0,20.18,39.941Z" transform="translate(-15.879 -39.222)" stroke="#16161d" stroke-width="0.3"/>
      <g id="Group_2277" data-name="Group 2277" transform="translate(2.12 2.586)">
        <path id="Path_1247" data-name="Path 1247" d="M30.554,55.326a.774.774,0,0,0,.277-.177.8.8,0,0,0,.18-.28,1.127,1.127,0,0,0,0-.74.8.8,0,0,0-.18-.28.776.776,0,0,0-.277-.177,1,1,0,0,0-.676,0,.777.777,0,0,0-.277.177.793.793,0,0,0-.18.28,1.121,1.121,0,0,0,0,.739.8.8,0,0,0,.18.28.781.781,0,0,0,.277.177,1,1,0,0,0,.676,0Zm-.158-.532a.239.239,0,0,1-.359,0,.608.608,0,0,1,0-.59.239.239,0,0,1,.36,0,.605.605,0,0,1,0,.589Z" transform="translate(-29.358 -53.614)" stroke="#16161d" stroke-width="0.3"/>
        <path id="Path_1248" data-name="Path 1248" d="M34.5,54.015,32.446,57.6h.734l2.051-3.589Z" transform="translate(-31.588 -53.943)" stroke="#16161d" stroke-width="0.3"/>
        <path id="Path_1249" data-name="Path 1249" d="M42.371,63.635a.774.774,0,0,0-.18-.272.785.785,0,0,0-.277-.171,1.034,1.034,0,0,0-.676,0,.778.778,0,0,0-.277.172.769.769,0,0,0-.18.271,1.054,1.054,0,0,0,0,.717.767.767,0,0,0,.18.272.78.78,0,0,0,.277.172,1.03,1.03,0,0,0,.676,0,.788.788,0,0,0,.277-.172.769.769,0,0,0,.179-.271,1.056,1.056,0,0,0,0-.717Zm-.539.359a.46.46,0,0,1-.076.286.244.244,0,0,1-.359,0,.573.573,0,0,1,0-.572.244.244,0,0,1,.359,0A.459.459,0,0,1,41.832,63.994Z" transform="translate(-38.071 -60.808)" stroke="#16161d" stroke-width="0.3"/>
      </g>
    </g>
    <g id="Group_2282" data-name="Group 2282" transform="translate(12.289 4.822)">
      <g id="Group_2279" data-name="Group 2279">
        <path id="Path_1250" data-name="Path 1250" d="M77.389,48.548H70.577a.359.359,0,1,1,0-.719h6.812a.359.359,0,1,1,0,.719Z" transform="translate(-70.218 -47.829)" stroke="#16161d" stroke-width="0.3"/>
      </g>
      <g id="Group_2280" data-name="Group 2280" transform="translate(0 2.547)">
        <path id="Path_1251" data-name="Path 1251" d="M77.389,62.719H70.577a.359.359,0,1,1,0-.719h6.812a.359.359,0,1,1,0,.719Z" transform="translate(-70.218 -62)" stroke="#16161d" stroke-width="0.3"/>
      </g>
      <g id="Group_2281" data-name="Group 2281" transform="translate(0 5.094)">
        <path id="Path_1252" data-name="Path 1252" d="M77.389,76.89H70.577a.359.359,0,0,1,0-.719h6.812a.359.359,0,0,1,0,.719Z" transform="translate(-70.218 -76.171)" stroke="#16161d" stroke-width="0.3"/>
      </g>
    </g>
  </g>
</svg>
