<svg xmlns="http://www.w3.org/2000/svg" width="18.112" height="18.959" viewBox="0 0 18.112 18.959">
  <g id="Group_2288" data-name="Group 2288" transform="translate(0.05 0.05)">
    <g id="Follow">
      <g id="Group_2286" data-name="Group 2286" transform="translate(0 0)">
        <g id="Group_2285" data-name="Group 2285">
          <path id="Path_1253" data-name="Path 1253" d="M40.786,40.419A6.145,6.145,0,0,0,30.271,44.74a.636.636,0,0,1-1.271,0,7.417,7.417,0,0,1,12.928-4.963,2.962,2.962,0,0,0-1.142.642ZM36.417,36.9a4.45,4.45,0,1,1,4.45-4.45A4.45,4.45,0,0,1,36.417,36.9Zm0-1.271a3.179,3.179,0,1,0-3.179-3.179A3.179,3.179,0,0,0,36.417,35.629Zm6.357,11.231a4.238,4.238,0,1,1,4.238-4.238A4.238,4.238,0,0,1,42.774,46.859Zm0-1.271a2.967,2.967,0,1,0-2.967-2.967A2.967,2.967,0,0,0,42.774,45.588Zm.636-3.708a.106.106,0,0,0,.106.106h.53a.636.636,0,1,1,0,1.271h-.53a.106.106,0,0,0-.106.106v.53a.636.636,0,0,1-1.271,0v-.53a.106.106,0,0,0-.106-.106H41.5a.636.636,0,1,1,0-1.271h.53a.106.106,0,0,0,.106-.106v-.53a.636.636,0,0,1,1.271,0Z" transform="translate(-29 -28)" stroke="#16161d" stroke-width="0.1"/>
        </g>
      </g>
    </g>
  </g>
</svg>
