<svg xmlns="http://www.w3.org/2000/svg" width="19.934" height="20.62" viewBox="0 0 19.934 20.62">
  <g id="Group_2290" data-name="Group 2290" transform="translate(0.25 0.25)">
    <g id="orders">
      <g id="Group_2276" data-name="Group 2276" transform="translate(0 0)">
        <path id="Path_1244" data-name="Path 1244" d="M9.437,9.122A.372.372,0,0,1,9.81,8.75h9.281a.372.372,0,1,1,0,.744H9.81A.372.372,0,0,1,9.437,9.122Zm.372,3.646h9.281a.372.372,0,1,0,0-.744H9.81a.372.372,0,0,0,0,.744Zm0,3.273h9.281a.372.372,0,1,0,0-.744H9.81a.372.372,0,0,0,0,.744Zm6.681,2.529H9.81a.372.372,0,0,0,0,.744H16.49a.372.372,0,1,0,0-.744Zm8.834,2.646A3.887,3.887,0,0,1,18,23.034H8.868a2.981,2.981,0,0,1-2.977-2.977V8.006A2.981,2.981,0,0,1,8.868,5.029H20.033A2.981,2.981,0,0,1,23.01,8.006v9.657a3.891,3.891,0,0,1,2.314,3.552ZM17.7,22.29a3.881,3.881,0,0,1,4.563-4.871V8.006a2.235,2.235,0,0,0-2.233-2.233H8.868A2.235,2.235,0,0,0,6.635,8.006V20.057A2.235,2.235,0,0,0,8.868,22.29Zm6.878-1.074a3.144,3.144,0,1,0-3.144,3.144A3.144,3.144,0,0,0,24.58,21.215Zm-1.722-.372H21.808V19.582a.372.372,0,1,0-.744,0v1.634a.372.372,0,0,0,.372.372h1.421a.372.372,0,0,0,0-.744Z" transform="translate(-5.891 -5.029)" stroke="#16161d" stroke-width="0.5"/>
      </g>
    </g>
  </g>
</svg>
