<svg xmlns="http://www.w3.org/2000/svg" width="19.676" height="16.517" viewBox="0 0 19.676 16.517">
  <g id="Group_2289" data-name="Group 2289" transform="translate(0.25 0.25)">
    <path id="Path_1242" data-name="Path 1242" d="M47.13,42.11a1.731,1.731,0,0,0-1.451.787,1.731,1.731,0,0,0-1.451-.787c-.964,0-1.445.73-1.445,1.746,0,2.448,2.9,3.506,2.9,3.506s2.9-1.058,2.9-3.506C48.575,42.84,48.094,42.11,47.13,42.11Z" transform="translate(-36.091 -37.268)"/>
    <path id="Path_1243" data-name="Path 1243" d="M43.219,32.2a7.106,7.106,0,0,0-5.044-2.124L33.3,30.043h-.044a7.145,7.145,0,0,0-4.569,12.641l-.631,1.246a1.377,1.377,0,0,0,1.163,2.129,1.347,1.347,0,0,0,.915-.352l1.68-1.358c1.018,0,6.276.023,6.276.023h.043A7.151,7.151,0,0,0,43.219,32.2Zm-.624,9.543a6.307,6.307,0,0,1-4.463,1.832h-.039s-5.963-.024-6.422-.024H31.53L29.61,45.1a.586.586,0,0,1-.828-.034.574.574,0,0,1-.042-.715l.961-1.9-.267-.2a6.343,6.343,0,0,1,3.821-11.407h.039l4.875.029a6.349,6.349,0,0,1,4.425,10.865Z" transform="translate(-26.108 -30.043)" fill="#16161d" stroke="#16161d" stroke-width="0.5"/>
  </g>
</svg>
